<svg width="94" height="60" viewBox="0 0 94 60" fill="none" xmlns="http://www.w3.org/2000/svg">
<path d="M80.1488 59.4494C87.5264 59.4494 93.5081 53.9868 93.5081 47.2456V30.4809C93.5081 13.6613 78.5602 0 60.1201 0C41.667 0 26.7373 13.6613 26.7373 30.4809C26.7373 42.9924 34.9717 53.7315 46.7529 58.4332V44.0944C42.6592 40.7382 40.0785 35.9005 40.0785 30.4809C40.0811 20.3953 49.0576 12.1919 60.1201 12.1919C71.1852 12.1919 80.1488 20.3953 80.1488 30.4809V59.4494Z" fill="white"/>
<path d="M13.3516 59.4494C5.97656 59.4494 0 53.9891 0 47.2551V30.4809C0 13.6613 14.9453 0 33.3828 0C51.8177 0 66.763 13.6613 66.776 30.4809C66.763 42.9924 58.526 53.7315 46.7526 58.4332V44.0873C50.8438 40.7382 53.4193 35.9005 53.4193 30.4809C53.4193 20.3953 44.4479 12.1919 33.3828 12.1919C22.3333 12.1919 13.3516 20.3953 13.3516 30.4809V59.4494Z" fill="white"/>
</svg>
